<svg width="580" height="200" xmlns="http://www.w3.org/2000/svg">
 <!-- Created with Method Draw - http://github.com/duopixel/Method-Draw/ -->

 <g>
  <title>background</title>
  <rect x="-1" y="-1" width="582" height="202" id="canvas_background" fill="none"/>
  <g id="canvasGrid" display="none">
   <rect id="svg_4" width="100%" height="100%" x="0" y="0" stroke-width="0" fill="url(#gridpattern)"/>
  </g>
 </g>
 <g>
  <title>Layer 1</title>
  <text fill="#000000" stroke-width="0" x="129.994109" y="151.227416" id="svg_1" font-size="24" font-family="'Times New Roman', Times, serif" text-anchor="start" xml:space="preserve" transform="matrix(7.449984262266266,0,0,6.257390327434985,-966.4472008752523,-794.823015954163) " stroke="#000">M  l pre</text>
  <path fill="#000000" stroke="#000" stroke-width="0" stroke-opacity="null" d="m207.365202,88.066889c-8.786998,0 -15.95333,6.656631 -15.95333,14.814896s7.166332,14.814896 15.95333,14.814896c8.786998,0 15.95333,-6.656631 15.95333,-14.814896s-7.166332,-14.814896 -15.95333,-14.814896zm40.46475,14.744698c-1.126225,-5.551771 -3.259643,-9.315011 -5.270978,-12.193142c0.152605,0.393721 0.274689,0.790494 0.42119,1.184215c-7.141915,-19.396099 -35.721786,-29.910586 -57.79763,-16.572906c-0.170918,0.824067 -0.222803,1.64203 -0.222803,2.453889c0,-0.155657 -0.018313,-0.299106 -0.012208,-0.457815c-5.319811,-0.408981 -11.762796,6.290379 -17.491589,18.565928c-2.908652,6.949633 -3.961627,14.55852 -1.26357,23.47981c1.574884,5.206884 4.05319,10.54806 7.627199,14.692812c10.593841,12.290809 26.82186,17.305411 36.271164,14.756907c0.012208,0.003052 0.027469,0.009156 0.042729,0.012208c18.217989,-0.381513 32.028744,-12.904281 37.00672,-29.205551c1.791583,-5.88445 1.907563,-10.700665 0.689775,-16.716355l0.000001,0zm-71.699948,29.159769c-2.930017,-3.393936 -5.356437,-8.091119 -7.016779,-13.587952c-2.23719,-7.386084 -1.867886,-14.192268 1.156746,-21.410486c3.070413,-6.571173 6.067576,-10.889895 8.646601,-13.487233c0.457815,2.264659 1.590144,4.96882 3.396988,8.085015c0.665358,1.156746 1.400914,2.139523 2.112054,3.088726c0.546326,0.723348 1.086548,1.446696 1.565728,2.224981c0.37846,0.616524 0.729452,1.358185 1.080444,2.249398c-0.729452,8.405485 2.722474,15.681693 9.608013,20.38498l-7.770648,6.867226l-0.616524,0.521909c-0.634837,0.521909 -1.364289,1.138434 -1.986918,1.797687c-4.150857,4.407233 -0.763025,8.640497 0.872901,10.676248l0.207543,0.265533c0.723348,0.906474 1.565728,1.892302 2.487462,2.86287c-4.831475,-2.344013 -9.678211,-5.823408 -13.743609,-10.538903l-0.000002,0.000001zm68.095417,-13.33768c-4.883361,15.96859 -18.120321,26.553275 -33.786754,27.038559c-7.58447,-1.779375 -13.313263,-5.432739 -17.049034,-10.856322c0.012208,-0.012208 0.030521,-0.024417 0.045782,-0.039677l15.089586,-11.707858c6.793976,-0.37846 11.762796,-2.710265 14.793532,-6.952685c3.729667,-4.309566 5.469364,-9.232604 5.167206,-14.836261c5.545667,1.150642 10.343569,2.756047 14.817949,5.747105l0.354044,0.238064l0.408981,0.13124c0.476128,0.149553 0.949203,0.23196 1.400914,0.24722c0.332679,3.784605 -0.064094,7.120551 -1.242205,10.990614l-0.000001,0.000001zm0.778286,-14.140382c-5.954648,-3.986043 -12.397633,-5.698272 -20.125552,-6.97405c1.620665,7.196853 -0.256376,12.428154 -4.047085,16.823179c-2.691953,3.769344 -7.270104,5.560927 -13.41093,5.722689l-15.931965,12.367112c-1.516894,1.248309 -1.803791,2.49967 -0.860692,3.751032c2.591233,3.897533 5.887502,6.720726 9.528658,8.783946c-0.039677,0 -0.079355,0.006104 -0.119032,0.009156c-0.003052,-0.003052 -0.012208,-0.006104 -0.018313,-0.012208c-0.061042,0.009156 -0.125136,0.012208 -0.18923,0.015261c-0.244168,0.003052 -0.488336,-0.003052 -0.729452,-0.030521c-0.476128,-0.064094 -0.95836,-0.195334 -1.400914,-0.360148c-2.740786,-1.01635 -5.76847,-4.12644 -7.926305,-6.833653c-1.77327,-2.228033 -3.680833,-4.37366 -1.254413,-6.943529c0.787442,-0.833223 1.776323,-1.56878 2.408107,-2.130366l7.694346,-6.803132c0.524961,-0.418138 1.068235,-0.845432 1.632874,-1.291039c0.161761,-0.128188 0.326575,-0.256376 0.49444,-0.387617c1.721385,-1.349028 1.474165,-0.976672 -0.329627,-1.959449c-7.383031,-4.028773 -11.222574,-11.030292 -10.236746,-19.499871c-0.454763,-1.251361 -0.967516,-2.417264 -1.580988,-3.430561c-1.107913,-1.83126 -2.545452,-3.363415 -3.644208,-5.258769c-2.746891,-4.749069 -5.63723,-11.909297 0.039677,-11.237835c-0.015261,-0.161761 -0.006104,-0.335731 -0.015261,-0.500545c0.286897,6.107253 4.657506,11.668181 5.316759,14.918668c0.238064,1.165902 0.897318,2.151731 1.867886,0.854588c7.746231,-10.361882 18.523199,-9.318063 25.417894,-4.004356c1.352081,1.037714 2.087637,2.304336 3.308477,3.387832c0.470023,0.42119 1.001089,0.790494 1.632874,1.071287c2.267711,1.013297 5.515146,0.952255 7.956826,1.324612c4.18443,0.634837 8.262036,1.416175 12.119892,2.478306c0.763025,0.091563 1.294091,-0.012208 1.590144,-0.308262c0.643993,-0.634837 -0.006104,-2.707213 -0.369304,-3.854803c0.845432,2.456941 1.635926,4.91083 2.359274,7.370823c0.55243,1.916719 0.42119,3.464134 -1.178111,2.942225l0,-0.000002z" id="svg_7"/>
  <path fill="#000000" stroke-width="0" stroke-opacity="null" d="m334.36285,118.168236l0,-36.97998c0,-4.782117 -3.887732,-8.654339 -8.664679,-8.654339c-4.787287,0 -8.659509,3.872222 -8.659509,8.654339l0,36.687883c-5.443858,2.983007 -9.140305,8.765491 -9.140305,15.408756c0,9.69865 7.863351,17.559416 17.559416,17.559416c9.701235,0 17.559416,-7.860766 17.559416,-17.559416c0.002585,-6.444226 -3.479313,-12.066444 -8.654339,-15.116659zm-8.902492,29.79388c-8.08824,0 -14.672051,-6.586397 -14.672051,-14.682391c0,-5.355971 2.926139,-10.288014 7.635877,-12.870357l1.501843,-0.816837l0,-38.406861c0,-3.182046 2.592683,-5.766974 5.779899,-5.766974c3.182046,0 5.769559,2.584928 5.769559,5.766974l0,38.623994l1.416541,0.837517c4.539134,2.677985 7.253308,7.395479 7.253308,12.632543c-0.00517,8.095995 -6.591566,14.682391 -14.684976,14.682391l0,0.000001zm5.966014,-24.825649l-2.840836,-1.672448l0,-25.226313l-5.772144,0l0,25.060877l-3.001101,1.641429c-3.784335,2.080867 -6.139204,6.033222 -6.139204,10.339712c0,6.498509 5.291348,11.789857 11.787272,11.789857c6.501094,0 11.787272,-5.291348 11.787272,-11.789857c0.00517,-4.141055 -2.225623,-8.026202 -5.821258,-10.143258l-0.000001,0.000001z" id="svg_8" stroke="#000"/>
  <path id="svg_6" d="m326.054427,52.174577c-2.852268,0 -5.162277,2.425434 -5.162277,5.420221c0,2.992722 2.310009,5.419533 5.162277,5.419533c2.849645,0 5.160965,-2.426811 5.160965,-5.419533c0.000656,-2.994787 -2.310009,-5.420221 -5.160965,-5.420221zm0,9.463528c-2.12707,-0.005508 -3.846299,-1.810642 -3.851545,-4.042619c0.00459,-2.232666 1.724475,-4.038488 3.851545,-4.043996c2.125759,0.005508 3.844988,1.81133 3.849578,4.043996c-0.00459,2.231977 -1.723819,4.037111 -3.849578,4.042619zm0,-9.826345c0.362599,0 0.655694,-0.308429 0.655694,-0.689145l0,-3.339704c-0.001311,-0.380717 -0.293751,-0.688457 -0.655694,-0.688457c-0.362599,0 -0.656349,0.309117 -0.655694,0.689834l0,3.339016c0,0.37934 0.293095,0.688457 0.655694,0.688457zm2.106744,0.439235c0.081962,0.036488 0.167202,0.052323 0.250475,0.053011c0.258343,0 0.501606,-0.16041 0.606517,-0.425466l1.216968,-3.086352c0.137696,-0.351801 -0.020327,-0.75386 -0.35473,-0.899125c-0.335059,-0.145264 -0.71864,0.021342 -0.857647,0.372455l-1.216312,3.087041c-0.138351,0.351113 0.020327,0.75386 0.35473,0.898436zm1.786765,1.25368c0.12786,0.133561 0.295718,0.201718 0.463575,0.201718s0.335715,-0.067469 0.463575,-0.201718l2.249029,-2.363473c0.256376,-0.268498 0.255721,-0.704291 0,-0.974167c-0.257032,-0.268498 -0.672086,-0.268498 -0.927807,0.001377l-2.248374,2.362096c-0.256376,0.269187 -0.256376,0.70498 0,0.974167zm1.19533,1.875357c0.1036,0.265056 0.348173,0.424778 0.605205,0.424778c0.083273,0 0.168513,-0.017211 0.251131,-0.0537l2.937508,-1.278464c0.335059,-0.145264 0.493737,-0.5487 0.35473,-0.899813s-0.521932,-0.51772 -0.856992,-0.371767l-2.938164,1.278464c-0.334404,0.145953 -0.492426,0.549389 -0.353419,0.900502zm4.254797,1.522178l-3.18077,0.000688c-0.361943,0 -0.655694,0.308429 -0.654382,0.689145c0,0.380717 0.293095,0.687768 0.654382,0.687768l3.181426,-0.001377c0.362599,0 0.655038,-0.309117 0.655038,-0.688457c0,-0.380717 -0.293751,-0.689145 -0.655694,-0.687768zm-0.457674,3.80579l-2.938819,-1.276399c-0.335715,-0.145953 -0.719296,0.020654 -0.856992,0.372455c-0.138351,0.351801 0.020327,0.754549 0.35473,0.900502l2.938819,1.276399c0.082617,0.035111 0.167858,0.051634 0.251131,0.051634c0.257688,0 0.501606,-0.159722 0.606517,-0.424778c0.137696,-0.351801 -0.021638,-0.755237 -0.355386,-0.899813zm-4.061367,0.97279c-0.256376,-0.269187 -0.670775,-0.269187 -0.927151,0.000688c-0.256376,0.268498 -0.255721,0.703603 0,0.97279l2.251652,2.360719c0.12786,0.134249 0.295062,0.201718 0.46292,0.201718s0.336371,-0.067469 0.464231,-0.201718c0.256376,-0.269875 0.255065,-0.705668 0,-0.974167l-2.251652,-2.36003zm-1.856269,1.626824c-0.138351,-0.351801 -0.521932,-0.51772 -0.856992,-0.372455c-0.334404,0.145953 -0.493082,0.5487 -0.354075,0.900502l1.21959,3.084287c0.104255,0.265056 0.348173,0.424778 0.606517,0.424778c0.083929,0 0.169169,-0.016523 0.251131,-0.052323c0.335059,-0.145264 0.493082,-0.5487 0.354075,-0.90119l-1.220246,-3.083598zm-2.961769,0.070911c-0.362599,0 -0.655694,0.308429 -0.655694,0.688457l0.002623,3.339704c0,0.380717 0.294406,0.687768 0.655694,0.687768c0.362599,0 0.655694,-0.308429 0.654382,-0.688457l-0.001967,-3.340393c0,-0.378651 -0.294406,-0.687768 -0.655038,-0.68708zm-2.108711,-0.437859c-0.334404,-0.144576 -0.717329,0.021342 -0.856336,0.373832l-1.214345,3.086352c-0.137696,0.351801 0.021638,0.754549 0.356042,0.899813c0.081962,0.0358 0.166546,0.052323 0.250475,0.052323c0.257032,0 0.501606,-0.161099 0.605861,-0.426155l1.215,-3.087729c0.138351,-0.351113 -0.021638,-0.753172 -0.356697,-0.898436zm-1.787421,-1.250926c-0.257032,-0.269187 -0.672086,-0.26781 -0.927807,0.001377l-2.246407,2.363473c-0.256376,0.269875 -0.255065,0.704291 0.001311,0.974167c0.12786,0.133561 0.295062,0.201029 0.46292,0.201029c0.168513,0 0.336371,-0.067469 0.464231,-0.201718l2.247062,-2.364161c0.255065,-0.269187 0.255065,-0.70498 -0.001311,-0.974167zm-1.195985,-1.873291c-0.139663,-0.350425 -0.522588,-0.517031 -0.856992,-0.371767l-2.936852,1.281218c-0.335059,0.145953 -0.493082,0.549389 -0.354075,0.900502c0.104911,0.265056 0.348173,0.424089 0.605861,0.424089c0.083273,0 0.169169,-0.016523 0.251131,-0.052323l2.936852,-1.281218c0.333748,-0.14733 0.492426,-0.550077 0.354075,-0.900502zm-0.423578,-2.211324c0,-0.380717 -0.293095,-0.687768 -0.655694,-0.687768l-3.18077,0.004131c-0.362599,0 -0.656349,0.308429 -0.655038,0.689145c0.000656,0.37934 0.294406,0.688457 0.655694,0.68708l3.181426,-0.004131c0.361943,0 0.655694,-0.309806 0.654382,-0.688457zm-3.380757,-3.113891l2.940786,1.273645c0.081962,0.036488 0.166546,0.052323 0.249819,0.052323c0.257688,0 0.502261,-0.159722 0.606517,-0.425466c0.139007,-0.351801 -0.020982,-0.755237 -0.356697,-0.899125l-2.939475,-1.273645c-0.335059,-0.144576 -0.717985,0.022031 -0.856336,0.373144c-0.139007,0.351801 0.021638,0.753172 0.355386,0.899125zm4.060711,-0.976232c0.12786,0.132872 0.294406,0.200341 0.462264,0.200341s0.336371,-0.067469 0.464887,-0.203095c0.256376,-0.26781 0.255065,-0.704291 -0.002623,-0.973478l-2.251652,-2.357276c-0.255721,-0.268498 -0.672086,-0.267121 -0.927151,0.002065c-0.256376,0.268498 -0.255065,0.70498 0.001311,0.973478l2.252964,2.357965zm1.853646,-1.629577c0.104911,0.264367 0.348829,0.423401 0.605205,0.423401c0.083929,0 0.169169,-0.017211 0.251786,-0.053011c0.334404,-0.145953 0.493737,-0.549389 0.354075,-0.899813l-1.222213,-3.083598c-0.139007,-0.351113 -0.523244,-0.517031 -0.857647,-0.371078c-0.334404,0.146641 -0.492426,0.550077 -0.353419,0.900502l1.222213,3.083598z" fill-opacity="null" stroke-opacity="null" stroke-width="0" stroke="#000" fill="#000000"/>
 </g>
</svg>